<svg width="100%" height="100%" id="svg" viewBox="0 0 1440 600" xmlns="http://www.w3.org/2000/svg" class="transition duration-300 ease-in-out delay-150">
<path d="M 0,600 C 0,600 0,120 0,120 C 67.96666666666667,147.43589743589746 135.93333333333334,174.8717948717949 224,161 C 312.06666666666666,147.1282051282051 420.23333333333335,91.94871794871794 493,94 C 565.7666666666667,96.05128205128206 603.1333333333333,155.33333333333334 685,154 C 766.8666666666667,152.66666666666666 893.2333333333333,90.71794871794873 987,86 C 1080.7666666666667,81.28205128205127 1141.9333333333334,133.7948717948718 1212,149 C 1282.0666666666666,164.2051282051282 1361.0333333333333,142.1025641025641 1440,120 C 1440,120 1440,600 1440,600 Z" stroke="none" stroke-width="0" fill="#ff008044" class="transition-all duration-300 ease-in-out delay-150 path-0"></path><path d="M 0,600 C 0,600 0,240 0,240 C 88.27435897435899,235.23589743589744 176.54871794871798,230.47179487179488 254,245 C 331.451282051282,259.5282051282051 398.07948717948716,293.34871794871793 475,279 C 551.9205128205128,264.65128205128207 639.1333333333333,202.1333333333333 731,202 C 822.8666666666667,201.8666666666667 919.3871794871795,264.11794871794876 995,267 C 1070.6128205128205,269.88205128205124 1125.3179487179486,213.3948717948718 1196,199 C 1266.6820512820514,184.6051282051282 1353.3410256410257,212.3025641025641 1440,240 C 1440,240 1440,600 1440,600 Z" stroke="none" stroke-width="0" fill="#ff008066" class="transition-all duration-300 ease-in-out delay-150 path-1"></path><path d="M 0,600 C 0,600 0,360 0,360 C 99.78974358974361,358.9820512820513 199.57948717948722,357.9641025641026 274,346 C 348.4205128205128,334.0358974358974 397.47179487179494,311.125641025641 474,319 C 550.5282051282051,326.874358974359 654.5333333333333,365.5333333333333 735,379 C 815.4666666666667,392.4666666666667 872.394871794872,380.74102564102566 940,380 C 1007.605128205128,379.25897435897434 1085.8871794871795,389.50256410256407 1171,388 C 1256.1128205128205,386.49743589743593 1348.0564102564103,373.24871794871797 1440,360 C 1440,360 1440,600 1440,600 Z" stroke="none" stroke-width="0" fill="#ff008088" class="transition-all duration-300 ease-in-out delay-150 path-2"></path><path d="M 0,600 C 0,600 0,480 0,480 C 55.374358974358955,487.69743589743587 110.74871794871791,495.3948717948718 195,488 C 279.2512820512821,480.6051282051282 392.3794871794872,458.1179487179487 477,463 C 561.6205128205128,467.8820512820513 617.7333333333333,500.13333333333344 697,513 C 776.2666666666667,525.8666666666666 878.6871794871795,519.348717948718 969,519 C 1059.3128205128205,518.651282051282 1137.5179487179487,524.4717948717949 1214,519 C 1290.4820512820513,513.5282051282051 1365.2410256410258,496.76410256410253 1440,480 C 1440,480 1440,600 1440,600 Z" stroke="none" stroke-width="0" fill="#ff0080ff" class="transition-all duration-300 ease-in-out delay-150 path-3"></path></svg>